<svg width="24" height="24" viewBox="0 0 24 24" fill="none" xmlns="http://www.w3.org/2000/svg">
<path d="M21.75 12C21.75 6.62807 17.3719 2.25 12 2.25C6.62807 2.25 2.25 6.62807 2.25 12C2.25 17.3719 6.62807 21.75 12 21.75C17.3719 21.75 21.75 17.3719 21.75 12ZM10.0332 16.2368C9.64559 15.8491 9.64559 15.2109 10.0332 14.8232L12.8564 12L10.0332 9.17678C9.64559 8.78915 9.64559 8.15085 10.0332 7.76322C10.4209 7.37559 11.0591 7.37559 11.4468 7.76322L14.9768 11.2932C15.3644 11.6809 15.3644 12.3191 14.9768 12.7068L11.4468 16.2368C11.2474 16.4361 10.9927 16.53 10.74 16.53C10.4873 16.53 10.2326 16.4361 10.0332 16.2368Z" fill="#19B929" stroke="black" stroke-width="0.5"/>
</svg>
