<svg width="24" height="25" viewBox="0 0 24 25" fill="none" xmlns="http://www.w3.org/2000/svg">
<path d="M2.25 12.8018C2.25 7.42983 6.62807 3.05176 12 3.05176C17.3719 3.05176 21.75 7.42983 21.75 12.8018C21.75 18.1737 17.3719 22.5518 12 22.5518C6.62807 22.5518 2.25 18.1737 2.25 12.8018ZM13.9668 17.0385C14.3544 16.6509 14.3544 16.0126 13.9668 15.625L11.1436 12.8018L13.9668 9.97853C14.3544 9.5909 14.3544 8.95261 13.9668 8.56498C13.5791 8.17735 12.9409 8.17735 12.5532 8.56498L9.02322 12.095C8.63559 12.4826 8.63559 13.1209 9.02322 13.5085L12.5532 17.0385C12.7526 17.2379 13.0073 17.3318 13.26 17.3318C13.5127 17.3318 13.7674 17.2379 13.9668 17.0385Z" fill="#19B929" stroke="black" stroke-width="0.5"/>
</svg>
